PathFileType	4	(X/Y/Z)	RBDS001\RBDS001runT25.trc																																																																																																	
DataRate	CameraRate	NumFrames	NumMarkers	Units	OrigDataRate	OrigDataStartFrame	OrigNumFrames																																																																																													
150	150	6	33	mm	150	1125	4500																																																																																													
Frame#	Time	L.ASIS			L.Heel.Bottom			L.Heel.Lateral			L.Heel.Top			L.Iliac.Crest			L.MT1			L.MT5			L.PSIS			L.Shank.Bottom.Lateral			L.Shank.Bottom.Medial			L.Shank.Top.Lateral			L.Shank.Top.Medial			L.Thigh.Bottom.Lateral			L.Thigh.Bottom.Medial			L.Thigh.Top.Lateral			L.Thigh.Top.Medial			R.ASIS			R.ASY			R.Heel.Bottom			R.Heel.Lateral			R.Heel.Top			R.Iliac.Crest			R.MT5			R.MT1			R.PSIS			R.Shank.Bottom.Lateral			R.Shank.Bottom.Medial			R.Shank.Top.Lateral			R.Shank.Top.Medial			R.Thigh.Bottom.Lateral			R.Thigh.Bottom.Medial			R.Thigh.Top.Lateral			R.Thigh.Top.Medial		
		X1	Y1	Z1	X2	Y2	Z2	X3	Y3	Z3	X4	Y4	Z4	X5	Y5	Z5	X6	Y6	Z6	X7	Y7	Z7	X8	Y8	Z8	X9	Y9	Z9	X10	Y10	Z10	X11	Y11	Z11	X12	Y12	Z12	X13	Y13	Z13	X14	Y14	Z14	X15	Y15	Z15	X16	Y16	Z16	X17	Y17	Z17	X18	Y18	Z18	X19	Y19	Z19	X20	Y20	Z20	X21	Y21	Z21	X22	Y22	Z22	X23	Y23	Z23	X24	Y24	Z24	X25	Y25	Z25	X26	Y26	Z26	X27	Y27	Z27	X28	Y28	Z28	X29	Y29	Z29	X30	Y30	Z30	X31	Y31	Z31	X32	Y32	Z32	X33	Y33	Z33
																																																																																																				
1126	7.5	2353.291235	1029.800222	940.4142838	1853.323287	114.6853494	1067.213834	1879.12252	117.7971381	1022.07156	1880.106084	154.0956432	1065.185334	2304.868994	1104.421584	915.7746404	2060.919089	46.34801414	1074.588087	2015.875791	51.99066778	977.1929198	2190.998304	1087.199421	1024.400105	1991.538836	217.6758934	991.2969044	1955.470937	240.1767366	1020.629957	2023.18539	288.6349059	969.3573369	1988.124782	315.0168856	1000.149358	2178.720787	643.4545406	922.6720999	2134.653997	654.729875	980.743828	2179.893206	752.9676002	907.2466555	2142.142098	763.7977892	963.8100904	2359.841781	1029.402754	1148.826991	558131.6692	431471.5017	21956450.12	2105.684436	189.3975929	1122.710513	2140.098063	191.398175	1165.94549	2138.826505	225.6509645	1120.237636	2308.993092	1105.276149	1187.275019	2286.549655	107.4779759	1194.844607	2308.908388	97.39828337	1089.049172	2196.3808	1084.642638	1099.226504	2253.634482	281.4486422	1170.737063	2219.499741	308.0842716	1137.320165	2294.19209	351.1875213	1182.610848	2260.695529	376.3555407	1148.230697	2435.127906	642.7639142	1193.392731	2383.929383	615.8273472	1147.804317	2371.790761	731.4276787	1210.784062	2321.688755	704.5147628	1169.245951
1127	7.506666667	2355.316978	1033.505385	940.847555	1842.340752	124.6597272	1066.394429	1868.262226	126.118231	1021.146066	1870.884256	162.7607215	1063.854476	2307.408473	1108.953415	916.0734997	2045.812487	46.72877566	1073.988236	2001.326363	53.21897417	976.5959178	2193.277551	1092.261592	1024.209016	1981.064423	224.1049608	989.8181816	1945.415343	246.2857069	1019.936911	2012.470093	295.3286943	968.374535	1977.902808	321.3466093	999.9299525	2172.545734	649.7632224	922.267908	2128.73803	662.0818843	980.3267061	2176.29854	759.1792757	906.8892183	2138.895342	770.9510137	963.5045223	2361.714644	1035.007245	1148.873433	564392.333	436450.6249	22209107.93	2125.321499	177.0592193	1120.940456	2159.423816	180.2732223	1164.243846	2156.76994	214.8445101	1118.788227	2310.568042	1111.148744	1187.032947	2309.507586	102.6474301	1192.823918	2332.504141	94.34733161	1087.078766	2198.563483	1090.173302	1099.064902	2268.552523	275.9477853	1169.395477	2233.237509	300.9673159	1135.868663	2305.585123	347.5804825	1181.444676	2271.019364	371.1486436	1146.950008	2436.78816	648.2123228	1192.693322	2385.067928	621.0712929	1147.833283	2373.843304	737.0836716	1210.208552	2323.342727	710.1261584	1169.195248
1128	7.513333333	2357.430245	1037.151788	941.333134	1832.241613	135.1475955	1065.40249	1858.167097	134.9238766	1020.082936	1862.56435	171.8033865	1062.355566	2309.957051	1113.36842	916.3678095	2031.159237	47.36955314	1073.298086	1987.120056	54.80213231	975.8972642	2195.55496	1097.126532	1023.942989	1971.296793	230.6583641	988.1530215	1936.079456	252.5029299	1019.075491	2002.446943	302.155255	967.2075613	1968.411682	327.7843886	999.570609	2166.970289	656.1051474	921.7516354	2123.430833	669.4321951	979.780598	2173.165888	765.3766636	906.3654323	2136.174407	778.0367757	963.0586872	2363.544994	1040.418148	1148.970147	570699.7648	441467.9525	22463696.72	2145.533336	164.9757791	1119.001344	2179.228859	169.3382576	1162.408651	2175.271231	204.179617	1117.211813	2312.020443	1116.83367	1186.788533	2332.548288	97.94302932	1190.808749	2356.213959	91.44695184	1085.103682	2200.73865	1095.456202	1098.8254	2283.655319	270.3713966	1168.040832	2247.258808	293.6884314	1134.372455	2317.007939	343.7538109	1180.301393	2281.466157	365.6451873	1145.646725	2437.863816	653.157353	1192.006687	2385.527495	625.8471283	1147.979236	2375.459528	742.3727163	1209.567079	2324.503032	715.4078181	1169.162062
1129	7.52	2359.581968	1040.719076	941.8034903	1823.029377	146.0866311	1064.223792	1848.82367	144.166997	1018.868254	1855.118496	181.1694423	1060.67636	2312.452101	1117.622692	916.6368327	2016.99022	48.33829948	1072.509342	1973.277844	56.80254163	975.0908592	2197.788144	1101.732287	1023.627685	1962.222208	237.2856037	986.3298126	1927.437776	258.789214	1018.047448	1993.129895	309.0506425	965.8794949	1959.652272	334.2813683	999.0696052	2161.995425	662.4040864	921.1802851	2118.740261	676.7064032	979.1686244	2170.487033	771.4925752	905.7200699	2133.968374	784.9890207	962.5188808	2365.329106	1045.553614	1149.074997	577054.1386	446523.6309	22720223.82	2166.24272	153.2549583	1116.921738	2199.459367	158.6858917	1160.464296	2194.271554	193.7540807	1115.539697	2313.371603	1122.228854	1186.537812	2355.626595	93.420023	1188.781864	2379.960597	88.76305556	1083.111075	2202.880937	1100.412928	1098.530872	2298.922557	264.7631657	1166.696472	2261.53928	286.3103518	1132.879809	2328.470388	339.7258796	1179.208444	2292.036111	359.8851672	1144.376605	2438.353881	657.5156532	1191.341578	2385.323545	630.079447	1148.233599	2376.626738	747.1999018	1208.873461	2325.16421	720.2648443	1169.155195
1130	7.526666667	2361.727287	1044.18666	942.1967938	1814.676863	157.3978897	1062.854914	1840.197169	153.7854303	1017.495655	1848.487189	190.7945799	1058.816949	2314.840272	1121.681326	916.8630675	2003.317704	49.69257209	1071.614702	1959.814478	59.2714195	974.1729647	2199.942685	1106.025908	1023.288026	1953.811079	243.9393621	984.3846088	1919.448978	265.1123965	1016.861541	1984.522601	315.9513171	964.4202752	1951.61313	340.7933434	998.4296848	2157.620652	668.581804	920.6083511	2114.670983	683.8234033	978.5516469	2168.253886	777.4575803	905.0046006	2132.261196	791.7379157	961.9352816	2367.066141	1050.33628	1149.148748	583455.6281	451617.806	22978696.6	2187.347932	142.0020374	1114.734892	2220.042968	148.4064784	1158.437064	2213.681627	183.6684438	1113.809321	2314.650185	1127.237041	1186.278456	2378.690209	89.14497541	1186.70813	2403.645001	86.38732551	1081.072275	2204.969248	1104.976548	1098.204771	2314.318399	259.1794334	1165.382868	2276.033081	278.9101175	1131.439915	2339.970925	335.5294833	1178.191301	2302.713759	353.9243449	1143.197842	2438.266935	661.216949	1190.713426	2384.489616	633.709958	1148.580276	2377.338801	751.4794312	1208.15226	2325.332386	724.6150799	1169.182276
1131	7.533333333	2363.828248	1047.530993	942.4638984	1807.125082	168.9856744	1061.30442	1832.23269	163.7021199	1015.968144	1842.58043	200.6044982	1056.792026	2317.082349	1125.51698	917.033824	1990.134341	51.47482621	1070.609242	1946.737559	62.24405956	973.1431123	2201.993194	1109.964009	1022.9449	1946.01936	250.5757674	982.3588387	1912.058971	271.447502	1015.533548	1976.618772	322.7947712	962.8647401	1944.272457	347.2807503	997.6578431	2153.8468	674.5562502	920.0805736	2111.225641	690.6934971	977.9803754	2166.459893	783.1986848	904.2703286	2131.033164	798.2078079	961.3550444	2368.756139	1054.69573	1149.158967	589904.4074	456750.6241	23239122.4	2208.721383	131.3169005	1112.476371	2240.885177	138.5854837	1156.353616	2233.380396	174.0225649	1112.062204	2315.886958	1131.770817	1186.010048	2401.674121	85.19102073	1184.538843	2427.144947	84.43138037	1078.94725	2206.98631	1109.093457	1097.868249	2329.786691	253.6889936	1164.116126	2290.670733	271.5771807	1130.097259	2351.490335	331.2134687	1177.271209	2313.464772	347.833627	1142.163421	2437.624381	664.2100341	1190.145642	2383.079934	636.7019063	1148.997397	2377.598116	755.1404514	1207.439263	2325.028299	728.3946742	1169.248581
